<svg width="24" height="24" viewBox="0 0 24 24" fill="none" xmlns="http://www.w3.org/2000/svg">
<rect width="24" height="24" rx="12" fill="#59C9A5"/>
<path d="M18.506 6.53091L19.0015 6.00869C19.2526 5.74427 19.2724 5.3807 19.0213 5.1295L18.8496 4.95102C18.6249 4.72626 18.2484 4.75932 18.0039 5.0039L17.4886 5.50629L18.506 6.53091ZM10.684 13.5644L12.0383 12.9959L18.0238 7.00686L17.0064 5.99547L11.0209 11.9911L10.4263 13.3C10.3603 13.452 10.532 13.6239 10.684 13.5644ZM8.17353 18H15.8701C17.1385 18 17.885 17.2596 17.885 15.845V8.86439L16.5637 10.1799V15.726C16.5637 16.3606 16.2268 16.6779 15.7842 16.6779H8.25941C7.65161 16.6779 7.32129 16.3606 7.32129 15.726V8.38183C7.32129 7.74723 7.65161 7.42993 8.25941 7.42993H13.8683L15.183 6.10784H8.17353C6.74653 6.10784 6 6.84821 6 8.26284V15.845C6 17.2596 6.74653 18 8.17353 18Z" fill="white"/>
</svg>
