<svg width="14" height="3" viewBox="0 0 14 3" fill="none" xmlns="http://www.w3.org/2000/svg">
<path d="M2.49609 1.24805C2.49609 0.553711 1.94238 0 1.24805 0C0.5625 0 0 0.553711 0 1.24805C0 1.93359 0.5625 2.49609 1.24805 2.49609C1.94238 2.49609 2.49609 1.93359 2.49609 1.24805ZM7.90137 1.24805C7.90137 0.553711 7.34766 0 6.65332 0C5.96777 0 5.40527 0.553711 5.40527 1.24805C5.40527 1.93359 5.96777 2.49609 6.65332 2.49609C7.34766 2.49609 7.90137 1.93359 7.90137 1.24805ZM13.3066 1.24805C13.3066 0.553711 12.7529 0 12.0586 0C11.373 0 10.8105 0.553711 10.8105 1.24805C10.8105 1.93359 11.373 2.49609 12.0586 2.49609C12.7529 2.49609 13.3066 1.93359 13.3066 1.24805Z" fill="#59C9A5"/>
</svg>
