<svg width="44" height="44" viewBox="0 0 44 44" fill="none" xmlns="http://www.w3.org/2000/svg">
<g clip-path="url(#clip0_1102_1805)">
<path d="M31.1665 6.12346C33.9317 7.72003 36.2319 10.0111 37.8395 12.7698C39.4471 15.5286 40.3063 18.6594 40.3321 21.8523C40.3579 25.0451 39.5494 28.1894 37.9865 30.9737C36.4237 33.7581 34.1608 36.086 31.4218 37.7271C28.6828 39.3681 25.5627 40.2653 22.3704 40.3299C19.178 40.3945 16.0242 39.6243 13.221 38.0954C10.4179 36.5665 8.0626 34.3321 6.38839 31.6132C4.71418 28.8944 3.77909 25.7854 3.67567 22.5941L3.6665 22.0001L3.67567 21.4061C3.77834 18.2399 4.69967 15.1544 6.34984 12.4503C8.00001 9.74617 10.3227 7.51579 13.0915 5.97658C15.8602 4.43737 18.9806 3.64186 22.1483 3.6676C25.3161 3.69334 28.4231 4.53946 31.1665 6.12346ZM28.796 17.0373C28.4803 16.7216 28.0603 16.532 27.6148 16.504C27.1692 16.476 26.7287 16.6115 26.376 16.8851L26.2037 17.0373L20.1665 23.0726L17.796 20.704L17.6237 20.5518C17.2709 20.2784 16.8305 20.143 16.3851 20.1711C15.9396 20.1992 15.5198 20.3888 15.2042 20.7044C14.8886 21.02 14.6989 21.4399 14.6708 21.8854C14.6427 22.3308 14.7781 22.7712 15.0515 23.124L15.2037 23.2963L18.8703 26.963L19.0427 27.1151C19.3642 27.3646 19.7596 27.5 20.1665 27.5C20.5734 27.5 20.9688 27.3646 21.2903 27.1151L21.4627 26.963L28.796 19.6296L28.9482 19.4573C29.2218 19.1046 29.3573 18.6641 29.3293 18.2185C29.3013 17.773 29.1117 17.353 28.796 17.0373Z" fill="#59C9A5"/>
</g>
<defs>
<clipPath id="clip0_1102_1805">
<rect width="44" height="44" fill="white"/>
</clipPath>
</defs>
</svg>
