<svg width="40" height="40" viewBox="0 0 40 40" fill="none" xmlns="http://www.w3.org/2000/svg">
<path d="M28.99 23.8756L29.5424 11.3449H31.2751C31.9155 11.3449 32.4051 10.8426 32.4051 10.2148C32.4051 9.58706 31.9155 9.10994 31.2751 9.10994H25.851V7.40235C25.851 5.38086 24.4322 4.07506 22.2601 4.07506H17.7149C15.5427 4.07506 14.1364 5.38086 14.1364 7.40235V8.68304H13.7849L19.2718 14.1699V13.6551C19.3973 13.404 19.6736 13.2534 20 13.2534C20.5274 13.2534 20.8915 13.5924 20.8915 14.082V15.7896L23.4152 18.3133L23.5407 14.082C23.5533 13.5798 23.9049 13.2534 24.4071 13.2534C24.947 13.2534 25.286 13.5924 25.2734 14.0946L25.1102 20.0084L28.99 23.8756ZM30.685 30.6557C31.0868 31.0575 31.7271 31.0575 32.1038 30.6557C32.4805 30.2665 32.493 29.6387 32.1038 29.2494L9.30246 6.43555C8.91323 6.04632 8.27289 6.04632 7.88366 6.43555C7.49443 6.81222 7.49443 7.46513 7.88366 7.85435L30.685 30.6557ZM16.7857 9.10994V7.51535C16.7857 6.90011 17.2252 6.48577 17.9032 6.48577H22.0843C22.7623 6.48577 23.2017 6.91267 23.2017 7.51535V9.10994H16.7857ZM14.0611 32.1122H25.9515C27.1443 32.1122 27.9981 31.6225 28.3873 30.7813L28.3998 30.5929L24.7712 26.9643L24.7587 27.6423C24.721 28.019 24.4322 28.2701 24.0304 28.2701C23.4905 28.2701 23.1515 27.9185 23.1641 27.4289L23.2143 25.4074L20.8915 23.0845V27.4289C20.8915 27.9311 20.5274 28.2575 20 28.2575C19.4727 28.2575 19.1211 27.9311 19.1211 27.4289V21.3142L16.5974 18.7905L16.8359 27.4163C16.8611 27.9185 16.5095 28.2575 15.9696 28.2575C15.4674 28.2575 15.1158 27.9311 15.1032 27.4289L14.8145 17.0075L10.5329 12.7386L11.2737 29.488C11.3365 31.1956 12.341 32.1122 14.0611 32.1122Z" fill="#E5E5E5"/>
</svg>
