<svg width="16" height="16" viewBox="0 0 16 16" fill="none" xmlns="http://www.w3.org/2000/svg">
<g clip-path="url(#clip0_1441_2226)">
<path d="M4.66666 4.66663H3.99999C3.64637 4.66663 3.30723 4.8071 3.05718 5.05715C2.80713 5.3072 2.66666 5.64634 2.66666 5.99996V12C2.66666 12.3536 2.80713 12.6927 3.05718 12.9428C3.30723 13.1928 3.64637 13.3333 3.99999 13.3333H9.99999C10.3536 13.3333 10.6928 13.1928 10.9428 12.9428C11.1928 12.6927 11.3333 12.3536 11.3333 12V11.3333" stroke="#E5E5E5" stroke-width="2" stroke-linecap="round" stroke-linejoin="round"/>
<path d="M13.59 4.38995C13.8526 4.12739 14.0001 3.77127 14.0001 3.39995C14.0001 3.02863 13.8526 2.67251 13.59 2.40995C13.3274 2.14738 12.9713 1.99988 12.6 1.99988C12.2287 1.99988 11.8726 2.14738 11.61 2.40995L6 7.99995V9.99995H8L13.59 4.38995Z" stroke="#E5E5E5" stroke-width="2" stroke-linecap="round" stroke-linejoin="round"/>
<path d="M10.6667 3.33337L12.6667 5.33337" stroke="#E5E5E5" stroke-width="2" stroke-linecap="round" stroke-linejoin="round"/>
</g>
<defs>
<clipPath id="clip0_1441_2226">
<rect width="16" height="16" fill="white"/>
</clipPath>
</defs>
</svg>
