<svg width="24" height="24" viewBox="0 0 24 24" fill="none" xmlns="http://www.w3.org/2000/svg">
<g clip-path="url(#clip0_1249_1804)">
<path fill-rule="evenodd" clip-rule="evenodd" d="M3.6 8.8421C3.6 5.354 6.2863 2.52632 9.6 2.52632H14.4C17.7137 2.52632 20.4 5.354 20.4 8.8421V9.90088C19.1348 8.33618 16.8312 8.34529 15.5782 9.92817C15.2773 10.3083 14.7227 10.3083 14.4218 9.92817C13.1615 8.33613 10.8385 8.33613 9.57814 9.92817C9.27726 10.3083 8.72274 10.3083 8.42186 9.92817C7.16874 8.34529 4.86522 8.33618 3.6 9.90088V8.8421ZM22.8 8.8421V9.47368C23.1071 9.47368 23.4142 9.59697 23.6485 9.84366C24.1171 10.3369 24.1171 11.1368 23.6485 11.63L23.4295 11.8605C22.9853 12.3283 22.4467 12.6303 21.8808 12.7699C23.1078 13.166 24 14.368 24 15.7895C24 16.8767 23.478 17.8357 22.6835 18.4037C22.7581 18.5683 22.8 18.7527 22.8 18.9474V19.5789C22.8 22.0206 20.9196 24 18.6 24H5.4C3.0804 24 1.2 22.0206 1.2 19.5789V18.9474C1.2 18.7527 1.24183 18.5683 1.31654 18.4037C0.521976 17.8357 0 16.8767 0 15.7895C0 14.368 0.892176 13.166 2.11922 12.7699C1.55324 12.6303 1.01477 12.3283 0.570444 11.8605L0.351468 11.63C-0.117156 11.1368 -0.117156 10.3369 0.351468 9.84366C0.585792 9.59697 0.892896 9.47368 1.2 9.47368V8.8421C1.2 3.95875 4.96081 0 9.6 0H14.4C19.0392 0 22.8 3.95875 22.8 8.8421ZM4.03159 12.6316H8.19911C7.58944 12.4642 7.01884 12.1022 6.57814 11.5455C6.27726 11.1654 5.72274 11.1654 5.42186 11.5455L5.35326 11.6322C4.98587 12.0963 4.52839 12.4302 4.03159 12.6316ZM9.80088 12.6316H14.1991C13.5894 12.4642 13.0188 12.1022 12.5782 11.5455C12.2773 11.1654 11.7227 11.1654 11.4218 11.5455C10.9812 12.1022 10.4106 12.4642 9.80088 12.6316ZM15.8009 12.6316H19.9684C19.4716 12.4302 19.0141 12.0963 18.6467 11.6322L18.5782 11.5455C18.2773 11.1654 17.7227 11.1654 17.4218 11.5455C16.9812 12.1022 16.4106 12.4642 15.8009 12.6316ZM3.6 18.9474V19.5789C3.6 20.6253 4.40588 21.4737 5.4 21.4737H18.6C19.5941 21.4737 20.4 20.6253 20.4 19.5789V18.9474H3.6ZM2.4 15.7895C2.4 15.4407 2.66863 15.1579 3 15.1579H21C21.3313 15.1579 21.6 15.4407 21.6 15.7895C21.6 16.1382 21.3313 16.4211 21 16.4211H3C2.66863 16.4211 2.4 16.1382 2.4 15.7895Z" fill="#59C9A5"/>
</g>
<defs>
<clipPath id="clip0_1249_1804">
<rect width="24" height="24" fill="white"/>
</clipPath>
</defs>
</svg>
