<svg width="13" height="12" viewBox="0 0 13 12" fill="none" xmlns="http://www.w3.org/2000/svg">
<path d="M0.28408 10.2349C-0.0873116 10.604 -0.104997 11.2632 0.292922 11.6411C0.673156 12.0366 1.3452 12.019 1.71659 11.6499L6.00527 7.38721L10.294 11.6499C10.6742 12.0278 11.3285 12.0366 11.7088 11.6411C12.1067 11.2632 12.0979 10.604 11.7176 10.2261L7.42894 5.96338L11.7176 1.70947C12.0979 1.32275 12.1067 0.672363 11.7088 0.294434C11.3285 -0.101074 10.6742 -0.0922852 10.294 0.285645L6.00527 4.54834L1.71659 0.285645C1.3452 -0.0834961 0.673156 -0.101074 0.292922 0.294434C-0.104997 0.672363 -0.0873116 1.33154 0.28408 1.70068L4.57276 5.96338L0.28408 10.2349Z" fill="#E5E5E5"/>
</svg>
