<svg width="36" height="36" viewBox="0 0 36 36" fill="none" xmlns="http://www.w3.org/2000/svg">
<g clip-path="url(#clip0_1073_1808)">
<path d="M13.5 6H10.5C9.70435 6 8.94129 6.31607 8.37868 6.87868C7.81607 7.44129 7.5 8.20435 7.5 9V27C7.5 27.7956 7.81607 28.5587 8.37868 29.1213C8.94129 29.6839 9.70435 30 10.5 30H13.5C14.2956 30 15.0587 29.6839 15.6213 29.1213C16.1839 28.5587 16.5 27.7956 16.5 27V9C16.5 8.20435 16.1839 7.44129 15.6213 6.87868C15.0587 6.31607 14.2956 6 13.5 6Z" fill="#59C9A5"/>
<path d="M25.5 6H22.5C21.7044 6 20.9413 6.31607 20.3787 6.87868C19.8161 7.44129 19.5 8.20435 19.5 9V27C19.5 27.7956 19.8161 28.5587 20.3787 29.1213C20.9413 29.6839 21.7044 30 22.5 30H25.5C26.2956 30 27.0587 29.6839 27.6213 29.1213C28.1839 28.5587 28.5 27.7956 28.5 27V9C28.5 8.20435 28.1839 7.44129 27.6213 6.87868C27.0587 6.31607 26.2956 6 25.5 6Z" fill="#59C9A5"/>
</g>
<defs>
<clipPath id="clip0_1073_1808">
<rect width="36" height="36" fill="white"/>
</clipPath>
</defs>
</svg>
