<svg width="36" height="36" viewBox="0 0 36 36" fill="none" xmlns="http://www.w3.org/2000/svg">
<g clip-path="url(#clip0_1107_1811)">
<path d="M9 5.99993V29.9999C8.99992 30.2668 9.07106 30.5289 9.20607 30.7591C9.34108 30.9894 9.53508 31.1794 9.76804 31.3096C10.001 31.4399 10.2645 31.5056 10.5313 31.5C10.7982 31.4945 11.0587 31.4178 11.286 31.2779L30.786 19.2779C31.0044 19.1437 31.1848 18.9558 31.3099 18.7321C31.435 18.5083 31.5007 18.2563 31.5007 17.9999C31.5007 17.7436 31.435 17.4915 31.3099 17.2678C31.1848 17.0441 31.0044 16.8561 30.786 16.7219L11.286 4.72193C11.0587 4.58208 10.7982 4.50541 10.5313 4.49984C10.2645 4.49427 10.001 4.55999 9.76804 4.69023C9.53508 4.82046 9.34108 5.0105 9.20607 5.24073C9.07106 5.47096 8.99992 5.73304 9 5.99993Z" fill="#59C9A5"/>
</g>
<defs>
<clipPath id="clip0_1107_1811">
<rect width="36" height="36" fill="white"/>
</clipPath>
</defs>
</svg>
