<svg width="24" height="24" viewBox="0 0 24 24" fill="none" xmlns="http://www.w3.org/2000/svg">
<path d="M21.9261 22.2825H15.067C13.4579 22.2825 11.9342 21.6858 10.7766 20.6019L1.38823 11.8119C0.584221 11.0591 0.138221 10.048 0.131899 8.96463C0.125839 7.88125 0.559984 6.86531 1.35504 6.10405L5.43595 2.19687C6.55688 1.12371 8.32691 1.10966 9.46549 2.16622C9.57271 2.26559 9.63172 2.4043 9.62803 2.54838C9.60116 3.57199 9.95627 4.40732 10.6544 4.96447C11.593 5.71321 13.0788 5.93775 14.7292 5.58011C15.1507 5.48917 15.5841 5.58727 15.9205 5.84911C16.2598 6.11274 16.4542 6.50563 16.4542 6.92687V11.9519C16.4542 12.9395 17.2827 13.7429 18.3012 13.7429H19.0443C21.6895 13.7427 23.8413 15.8292 23.8413 18.3937V20.4256C23.8413 21.4497 22.9822 22.2825 21.9261 22.2825ZM7.46705 2.40635C7.00156 2.40635 6.53633 2.57903 6.17647 2.92364L2.09556 6.83133C1.50414 7.39742 1.18091 8.15305 1.18565 8.95901C1.19039 9.76497 1.52206 10.517 2.12006 11.0767L11.5087 19.8669C12.4689 20.7659 13.7324 21.2607 15.0672 21.2607H21.9261C22.4011 21.2607 22.7875 20.8859 22.7875 20.4253V18.3935C22.7875 16.3922 21.1086 14.7642 19.0449 14.7642H18.3017C16.7024 14.7642 15.401 13.5025 15.401 11.9514V6.92636C15.401 6.81677 15.3504 6.71459 15.2622 6.64587C15.2116 6.60653 15.1052 6.54599 14.9592 6.5769C12.9898 7.00325 11.1763 6.70284 9.98551 5.75306C9.08667 5.036 8.60168 4.00805 8.57454 2.76909C8.24577 2.52743 7.85615 2.40635 7.46705 2.40635Z" fill="#59C9A5"/>
<path d="M23.3144 18.9045H15.1789C14.2052 18.9045 13.2827 18.5438 12.5812 17.8886L1.07526 7.14342C0.865564 6.94774 0.859505 6.62433 1.0613 6.42099C1.26335 6.21765 1.5966 6.21152 1.8063 6.40745L13.3125 17.1526C13.8164 17.6234 14.4795 17.8825 15.1792 17.8825H23.3144C23.6052 17.8825 23.8413 18.1114 23.8413 18.3934C23.8413 18.6754 23.6052 18.9045 23.3144 18.9045Z" fill="#59C9A5"/>
<path d="M15.5614 12.804C14.6547 12.8042 13.8307 12.2489 13.5311 11.3765L13.1555 10.2829C12.9608 9.71603 13.0266 9.09451 13.3362 8.57773C13.6455 8.0612 14.1692 7.69743 14.7732 7.58018L15.8244 7.37607C16.1089 7.31961 16.3873 7.49996 16.4445 7.77662C16.5017 8.05328 16.3167 8.32253 16.0314 8.37796L14.9803 8.58207C14.6676 8.64287 14.4076 8.82347 14.2477 9.09068C14.0878 9.35789 14.0551 9.66673 14.1555 9.95999L14.5311 11.0536C14.7124 11.5806 15.2693 11.8813 15.8265 11.7515C16.1089 11.6861 16.3939 11.855 16.4616 12.1293C16.5293 12.4037 16.3549 12.6793 16.072 12.7452C15.9005 12.7851 15.7295 12.804 15.5614 12.804Z" fill="#59C9A5"/>
<path d="M7.82798 5.4816C6.68835 5.4816 5.49471 5.06062 4.22099 4.21455C3.981 4.05515 3.91962 3.73711 4.08401 3.50439C4.24865 3.27192 4.57637 3.21215 4.81636 3.37155C6.5432 4.5188 7.99316 4.75075 9.37936 4.10189C9.64148 3.97902 9.95629 4.0858 10.0827 4.33998C10.2092 4.59416 10.0993 4.89942 9.83722 5.02204C9.18389 5.32833 8.51582 5.4816 7.82798 5.4816Z" fill="#59C9A5"/>
<path d="M5.79157 11.3495C5.73835 11.3495 5.68409 11.3415 5.63087 11.3249C5.35374 11.2388 5.20094 10.9515 5.28972 10.6825C5.92961 8.74458 5.26522 6.89152 3.25888 5.01725C3.04945 4.82157 3.04312 4.49816 3.24492 4.29482C3.44671 4.09148 3.78022 4.08586 3.98992 4.28128C6.28209 6.4225 7.05712 8.68097 6.29342 10.9941C6.2215 11.2113 6.01444 11.3495 5.79157 11.3495Z" fill="#59C9A5"/>
<path d="M7.34217 12.7972C7.15566 12.7972 6.97467 12.7009 6.87905 12.5308C6.73969 12.283 6.834 11.9726 7.08927 11.8377C8.71705 10.9771 10.0532 10.6016 11.8549 10.4979C12.1438 10.48 12.3946 10.6958 12.412 10.9776C12.4294 11.2594 12.2079 11.5013 11.9176 11.5179C10.285 11.6119 9.07269 11.9532 7.59375 12.7349C7.51367 12.7773 7.42726 12.7972 7.34217 12.7972Z" fill="#59C9A5"/>
<path d="M9.02925 14.3729C8.84247 14.3729 8.66175 14.2766 8.56612 14.1065C8.42703 13.8587 8.52134 13.5483 8.77661 13.4134C10.4031 12.5538 11.7387 12.1785 13.5401 12.0746C13.8314 12.0562 14.0801 12.2726 14.0973 12.5541C14.1146 12.8361 13.8934 13.0777 13.6028 13.0944C11.9703 13.1886 10.7587 13.5294 9.28083 14.3103C9.20075 14.3527 9.1146 14.3729 9.02925 14.3729Z" fill="#59C9A5"/>
<path d="M10.7134 15.9358C10.5264 15.9358 10.3454 15.839 10.2498 15.6683C10.1109 15.4203 10.2058 15.1102 10.4616 14.9758C12.0564 14.1369 13.4284 13.7532 15.1979 13.6515C15.483 13.6288 15.7377 13.8492 15.7548 14.1313C15.7719 14.413 15.5507 14.6547 15.2601 14.6713C13.636 14.7648 12.4316 15.102 10.9639 15.8737C10.8841 15.9161 10.7982 15.9358 10.7134 15.9358Z" fill="#59C9A5"/>
<path d="M10.4331 22.2826H0.658772C0.367937 22.2826 0.131897 22.0537 0.131897 21.7717C0.131897 21.4896 0.367937 21.2607 0.658772 21.2607H10.4331C10.7239 21.2607 10.96 21.4896 10.96 21.7717C10.96 22.0537 10.7239 22.2826 10.4331 22.2826Z" fill="#59C9A5"/>
<path d="M6.4544 18.7877H0.658772C0.367937 18.7877 0.131897 18.5588 0.131897 18.2768C0.131897 17.9948 0.367937 17.7659 0.658772 17.7659H6.4544C6.74523 17.7659 6.98127 17.9948 6.98127 18.2768C6.98127 18.5588 6.74523 18.7877 6.4544 18.7877Z" fill="#59C9A5"/>
<path d="M2.74414 15.2926H0.658772C0.367937 15.2926 0.131897 15.0637 0.131897 14.7817C0.131897 14.4996 0.367937 14.2708 0.658772 14.2708H2.74414C3.03498 14.2708 3.27102 14.4996 3.27102 14.7817C3.27102 15.0637 3.03524 15.2926 2.74414 15.2926Z" fill="#59C9A5"/>
</svg>
