<svg width="20" height="13" viewBox="0 0 20 13" fill="none" xmlns="http://www.w3.org/2000/svg">
<path d="M10 12.6103C15.9706 12.6103 20 7.79412 20 6.30147C20 4.81618 15.9632 0 10 0C4.11765 0 0 4.81618 0 6.30147C0 7.79412 4.11029 12.6103 10 12.6103ZM10.0074 10.3162C7.76471 10.3162 5.97794 8.48529 5.97059 6.30882C5.96324 4.05882 7.76471 2.29412 10.0074 2.29412C12.2353 2.29412 14.0368 4.06618 14.0368 6.30882C14.0368 8.48529 12.2353 10.3162 10.0074 10.3162ZM10.0074 7.80147C10.8309 7.80147 11.5147 7.125 11.5147 6.30882C11.5147 5.48529 10.8309 4.80147 10.0074 4.80147C9.16912 4.80147 8.49265 5.48529 8.49265 6.30882C8.49265 7.125 9.16912 7.80147 10.0074 7.80147Z" fill="#E5E5E5" fill-opacity="0.6"/>
</svg>
