<svg width="42" height="38" viewBox="0 0 42 38" fill="none" xmlns="http://www.w3.org/2000/svg">
<path d="M20.89 0.666656C21.7721 0.667263 22.641 0.880741 23.423 1.28896C24.205 1.69718 24.8769 2.28808 25.3817 3.01149L25.5797 3.31216L41.0365 29.1145C41.4996 29.9175 41.7515 30.8249 41.7685 31.7517C41.7855 32.6786 41.5671 33.5946 41.1338 34.4141C40.7004 35.2335 40.0662 35.9297 39.2906 36.4373C38.515 36.945 37.6232 37.2476 36.6988 37.3168L36.3322 37.3333H5.4295C4.50401 37.3223 3.59639 37.077 2.79125 36.6205C1.98612 36.164 1.30968 35.5111 0.825008 34.7226C0.340336 33.934 0.0632093 33.0357 0.0194633 32.1111C-0.0242827 31.1866 0.166777 30.2661 0.57483 29.4353L0.759996 29.0888L16.2058 3.30299C16.6944 2.49818 17.382 1.83282 18.2025 1.37105C19.0229 0.909282 19.9485 0.666687 20.89 0.666656ZM21.0183 26.3333L20.7855 26.3462C20.3399 26.3992 19.9292 26.6137 19.6313 26.9493C19.3333 27.2848 19.1687 27.7179 19.1687 28.1667C19.1687 28.6154 19.3333 29.0485 19.6313 29.3841C19.9292 29.7196 20.3399 29.9342 20.7855 29.9872L21 30L21.2328 29.9872C21.6784 29.9342 22.0891 29.7196 22.3871 29.3841C22.685 29.0485 22.8496 28.6154 22.8496 28.1667C22.8496 27.7179 22.685 27.2848 22.3871 26.9493C22.0891 26.6137 21.6784 26.3992 21.2328 26.3462L21.0183 26.3333ZM21 11.6667C20.551 11.6667 20.1175 11.8316 19.782 12.13C19.4464 12.4284 19.232 12.8395 19.1795 13.2855L19.1667 13.5V20.8333L19.1795 21.0478C19.2325 21.4934 19.4471 21.9041 19.7826 22.2021C20.1181 22.5 20.5513 22.6646 21 22.6646C21.4487 22.6646 21.8819 22.5 22.2174 22.2021C22.5529 21.9041 22.7675 21.4934 22.8205 21.0478L22.8333 20.8333V13.5L22.8205 13.2855C22.768 12.8395 22.5536 12.4284 22.218 12.13C21.8824 11.8316 21.449 11.6667 21 11.6667Z" fill="#FFB016"/>
</svg>
