<svg width="24" height="24" viewBox="0 0 24 24" fill="none" xmlns="http://www.w3.org/2000/svg">
<g clip-path="url(#clip0_359_1861)">
<path d="M9.5 12.5H14.5" stroke="#E5E5E5" stroke-width="2" stroke-linecap="round" stroke-linejoin="round"/>
<path d="M8.5 5.5H5.5C4.94772 5.5 4.5 5.94772 4.5 6.5V17.5C4.5 18.0523 4.94772 18.5 5.5 18.5H8.5C9.05228 18.5 9.5 18.0523 9.5 17.5V6.5C9.5 5.94772 9.05228 5.5 8.5 5.5Z" stroke="#E5E5E5" stroke-width="2" stroke-linecap="round" stroke-linejoin="round"/>
<path d="M4.5 8.5H2.5C2.23478 8.5 1.98043 8.60536 1.79289 8.79289C1.60536 8.98043 1.5 9.23478 1.5 9.5V14.5C1.5 14.7652 1.60536 15.0196 1.79289 15.2071C1.98043 15.3946 2.23478 15.5 2.5 15.5H4.5" stroke="#E5E5E5" stroke-width="2" stroke-linecap="round" stroke-linejoin="round"/>
<path d="M1.5 12H0.5" stroke="#E5E5E5" stroke-width="2" stroke-linecap="round" stroke-linejoin="round"/>
<path d="M18.5 5.5H15.5C14.9477 5.5 14.5 5.94772 14.5 6.5V17.5C14.5 18.0523 14.9477 18.5 15.5 18.5H18.5C19.0523 18.5 19.5 18.0523 19.5 17.5V6.5C19.5 5.94772 19.0523 5.5 18.5 5.5Z" stroke="#E5E5E5" stroke-width="2" stroke-linecap="round" stroke-linejoin="round"/>
<path d="M19.5 8.5H21.5C21.7652 8.5 22.0196 8.60536 22.2071 8.79289C22.3946 8.98043 22.5 9.23478 22.5 9.5V14.5C22.5 14.7652 22.3946 15.0196 22.2071 15.2071C22.0196 15.3946 21.7652 15.5 21.5 15.5H19.5" stroke="#E5E5E5" stroke-width="2" stroke-linecap="round" stroke-linejoin="round"/>
<path d="M22.5 12H23.5" stroke="#E5E5E5" stroke-width="2" stroke-linecap="round" stroke-linejoin="round"/>
</g>
<defs>
<clipPath id="clip0_359_1861">
<rect width="24" height="24" fill="white"/>
</clipPath>
</defs>
</svg>
